<svg data-v-fde0c5aa="" xmlns="http://www.w3.org/2000/svg" viewBox="0 0 300 300" class="font"><!----><defs data-v-fde0c5aa=""><!----></defs><rect data-v-fde0c5aa="" fill="#E9EEEE" x="0" y="0" width="300px" height="300px" class="logo-background-square"></rect><defs data-v-fde0c5aa=""><linearGradient data-v-fde0c5aa="" gradientTransform="rotate(25)" id="cabc182a-74c4-4e67-9983-a0fdff9b43c4" x1="0%" y1="0%" x2="100%" y2="0%"><stop data-v-fde0c5aa="" offset="0%" stop-color="#D0E90D" stop-opacity="1"></stop><stop data-v-fde0c5aa="" offset="100%" stop-color="#1536F1" stop-opacity="1"></stop></linearGradient></defs><g data-v-fde0c5aa="" id="2ab43ba1-b4a1-4b3c-8b9b-dfa3c563b8d5" fill="url(#cabc182a-74c4-4e67-9983-a0fdff9b43c4)" transform="matrix(2.4780354147221866,0,0,2.4780354147221866,39.77697680381286,125.88871595829802)"><path d="M2.41 13.34C3.88 13.34 5.18 12.48 5.18 10.21L5.18 3.82L3.69 3.82L3.69 10.25C3.69 11.42 3.16 12.02 2.30 12.02C1.78 12.02 1.33 11.83 0.86 11.27L0.09 12.47C0.69 12.99 1.40 13.34 2.41 13.34ZM10.18 13.34C12.26 13.34 13.72 11.81 13.72 9.84C13.72 7.89 12.26 6.36 10.18 6.36C8.06 6.36 6.62 7.89 6.62 9.84C6.62 11.81 8.06 13.34 10.18 13.34ZM10.18 12.13C8.95 12.13 8.09 11.14 8.09 9.84C8.09 8.56 8.95 7.57 10.18 7.57C11.39 7.57 12.25 8.56 12.25 9.84C12.25 11.14 11.39 12.13 10.18 12.13ZM19.61 6.53L17.69 11.48L15.75 6.53L14.25 6.53L17.11 13.15L18.27 13.15L21.13 6.53ZM22.85 5.26C23.36 5.26 23.77 4.86 23.77 4.36C23.77 3.86 23.36 3.46 22.85 3.46C22.36 3.46 21.95 3.86 21.95 4.36C21.95 4.86 22.36 5.26 22.85 5.26ZM22.18 13.15L23.57 13.15L23.57 6.53L22.18 6.53ZM30.71 6.53L30.52 7.45C30.01 6.78 29.24 6.36 28.22 6.36C26.50 6.36 25.13 7.69 25.13 9.84C25.13 12.00 26.50 13.31 28.22 13.31C29.23 13.31 30.00 12.89 30.51 12.22L30.71 13.15L31.88 13.15L31.88 6.53ZM28.55 12.12C27.36 12.12 26.57 11.14 26.57 9.84C26.57 8.55 27.36 7.55 28.55 7.55C29.79 7.55 30.60 8.55 30.60 9.84C30.60 11.14 29.79 12.12 28.55 12.12ZM33.69 13.15L35.10 13.15L35.10 3.24L33.69 3.24ZM44.17 3.82L40.91 3.82L40.91 13.15L42.39 13.15L42.39 9.45L44.17 9.44C45.66 9.42 47.18 8.44 47.18 6.64C47.18 4.81 45.66 3.82 44.17 3.82ZM43.62 8.30L42.39 8.27L42.39 4.99L43.62 4.97C44.93 4.96 45.63 5.59 45.63 6.64C45.63 7.70 44.93 8.31 43.62 8.30ZM54.79 9.70C54.79 7.73 53.46 6.36 51.54 6.36C49.55 6.36 48.12 7.89 48.12 9.84C48.12 11.80 49.54 13.31 51.71 13.31C52.85 13.31 53.81 12.92 54.41 12.25L53.43 11.46C53.01 11.94 52.44 12.19 51.70 12.19C50.46 12.19 49.71 11.33 49.61 10.15L54.79 10.15ZM51.54 7.50C52.57 7.50 53.24 8.12 53.39 9.17L49.67 9.17C49.87 8.17 50.56 7.50 51.54 7.50ZM59.65 6.36C58.71 6.36 58.01 6.75 57.60 7.32L57.43 6.53L56.19 6.53L56.19 13.15L57.60 13.15L57.60 9.11C57.72 7.95 58.51 7.57 59.25 7.57C60.27 7.57 60.71 8.30 60.71 9.38L60.71 13.15L62.13 13.15L62.13 9.06C62.13 7 60.80 6.36 59.65 6.36ZM69.02 6.53L68.83 7.47C68.32 6.80 67.55 6.36 66.53 6.36C64.81 6.36 63.44 7.67 63.44 9.81C63.44 11.96 64.81 13.27 66.53 13.27C67.49 13.27 68.25 12.89 68.76 12.26L68.76 12.43C68.76 14.13 68.25 15.02 66.85 15.02C66.49 15.02 66.09 14.95 65.74 14.79L65.42 15.98C65.86 16.13 66.40 16.22 66.92 16.22C69.08 16.22 70.17 14.95 70.17 12.54L70.17 6.53ZM66.86 12.07C65.67 12.07 64.88 11.11 64.88 9.81C64.88 8.53 65.67 7.54 66.86 7.54C68.10 7.54 68.91 8.53 68.91 9.81C68.91 11.11 68.10 12.07 66.86 12.07ZM74.81 13.33C76.26 13.33 77.77 12.67 77.77 10.31L77.77 6.53L76.36 6.53L76.36 10.32C76.36 11.43 75.82 12.12 74.81 12.12C73.81 12.12 73.27 11.43 73.27 10.32L73.27 6.53L71.85 6.53L71.85 10.31C71.85 12.67 73.37 13.33 74.81 13.33ZM80.30 5.26C80.81 5.26 81.21 4.86 81.21 4.36C81.21 3.86 80.81 3.46 80.30 3.46C79.80 3.46 79.39 3.86 79.39 4.36C79.39 4.86 79.80 5.26 80.30 5.26ZM79.63 13.15L81.01 13.15L81.01 6.53L79.63 6.53ZM86.39 6.36C85.46 6.36 84.76 6.75 84.35 7.32L84.17 6.53L82.94 6.53L82.94 13.15L84.35 13.15L84.35 9.11C84.47 7.95 85.25 7.57 86.00 7.57C87.02 7.57 87.46 8.30 87.46 9.38L87.46 13.15L88.87 13.15L88.87 9.06C88.87 7 87.54 6.36 86.39 6.36Z"></path></g><!----><!----></svg>